<svg width="12" height="17" viewBox="0 0 12 17" fill="none" xmlns="http://www.w3.org/2000/svg">
<path d="M10.6489 8.24751C10.5227 8.12132 10.2535 7.94515 9.93634 7.77146L8.99067 6.78174L7.94504 7.77146H7.65802L6.41642 5.97314C5.73402 5.97809 5.18077 6.5353 5.18571 7.21771L3.426 6.17257C3.0217 6.3527 2.73865 6.7565 2.73865 7.2281V7.70317L0.759216 9.76573L0.767134 10.847L5.70779 16.1563C5.70779 16.1563 10.9127 8.59094 10.9251 8.60578C10.8612 8.49543 10.6712 8.2584 10.6489 8.24751Z" fill="#EF9645"/>
<path d="M9.93633 1.71246C9.93633 1.16465 9.48799 0.716309 8.94018 0.716309C8.39237 0.716309 7.94403 1.16465 7.94403 1.71246V7.77198H9.93583V1.71246H9.93633ZM7.65751 7.77149V6.76C7.65355 6.21417 7.20769 5.77474 6.66186 5.7787C6.11603 5.78266 5.6766 6.22852 5.68056 6.77435L5.6865 7.77198H7.65751V7.77149ZM1.70388 6.75505H1.78702C2.31107 6.75505 2.73517 7.17964 2.73517 7.70369V9.76527C2.73517 10.2893 2.31107 10.7139 1.78702 10.7139H1.70388C1.17983 10.7139 0.755737 10.2893 0.755737 9.76527V7.70369C0.755737 7.17964 1.17983 6.75505 1.70388 6.75505ZM5.12731 8.21983L5.09959 8.25051C4.86503 8.51229 4.7146 8.84978 4.7146 9.22934C4.7146 9.26051 4.72103 9.29021 4.7235 9.32089C4.74528 9.6564 4.87592 9.96024 5.08376 10.1988C5.04862 10.2626 5.0031 10.319 4.95559 10.3734C4.77447 10.5798 4.51517 10.7139 4.21974 10.7139C3.67342 10.7139 3.23002 10.2705 3.23002 9.72419V6.75505C3.23002 6.53682 3.30277 6.3369 3.42252 6.1731C3.60265 5.92716 3.89115 5.76534 4.21974 5.76534C4.76606 5.76534 5.20945 6.20873 5.20945 6.75505V8.12976C5.17927 8.15698 5.15551 8.19063 5.12731 8.21983Z" fill="#FFB119"/>
<path d="M1.77604 11.2086C2.28277 11.2086 2.72864 10.9484 2.98844 10.5544C3.04931 10.645 3.12255 10.7257 3.20172 10.8004C3.78813 11.3522 4.70312 11.317 5.26379 10.7578C5.33901 10.6826 5.41374 10.6069 5.47114 10.5163L5.46965 10.5149C5.56912 10.5718 5.70422 10.7138 6.19907 10.7138H7.45453C7.27143 10.8519 7.10417 11.0221 6.94779 11.2086C6.34011 11.9346 5.95165 12.9931 5.95165 14.1778C5.95165 14.3144 6.06249 14.4252 6.19907 14.4252C6.33566 14.4252 6.4465 14.3144 6.4465 14.1778C6.4465 12.9169 6.91959 11.8148 7.62278 11.2086C7.98501 10.8964 8.40663 10.7138 8.85893 10.7138C9.21177 10.7529 9.27808 10.2189 8.92079 10.2189H6.19907C5.65275 10.2189 5.20936 9.77554 5.20936 9.22922C5.20936 8.68289 5.65275 8.2395 6.19907 8.2395H10.1579C10.5825 8.2395 10.9794 8.53444 11.1046 8.93973L11.6425 10.7138C11.6935 10.8796 11.8795 11.6397 11.8459 11.798C11.8459 14.1778 9.52204 16.6521 6.69393 16.6521C3.45905 16.6521 0.832843 14.0635 0.762573 10.8454L0.769501 10.8504C1.02435 11.0706 1.35145 11.2086 1.71468 11.2086H1.77604Z" fill="#FFB119"/>
</svg>
