<svg width="79" height="14" viewBox="0 0 79 14" fill="none" xmlns="http://www.w3.org/2000/svg">
<path d="M7 0L8.5716 4.83688H13.6574L9.5429 7.82624L11.1145 12.6631L7 9.67376L2.8855 12.6631L4.4571 7.82624L0.342604 4.83688H5.4284L7 0Z" fill="#43413C"/>
<path d="M72 0L73.5716 4.83688H78.6574L74.5429 7.82624L76.1145 12.6631L72 9.67376L67.8855 12.6631L69.4571 7.82624L65.3426 4.83688H70.4284L72 0Z" fill="#C4C4C4"/>
<path d="M56 0L57.5716 4.83688H62.6574L58.5429 7.82624L60.1145 12.6631L56 9.67376L51.8855 12.6631L53.4571 7.82624L49.3426 4.83688H54.4284L56 0Z" fill="#43413C"/>
<path d="M40 0L41.5716 4.83688H46.6574L42.5429 7.82624L44.1145 12.6631L40 9.67376L35.8855 12.6631L37.4571 7.82624L33.3426 4.83688H38.4284L40 0Z" fill="#43413C"/>
<path d="M24 0L25.5716 4.83688H30.6574L26.5429 7.82624L28.1145 12.6631L24 9.67376L19.8855 12.6631L21.4571 7.82624L17.3426 4.83688H22.4284L24 0Z" fill="#43413C"/>
</svg>
